<?xml version="1.0" encoding="UTF-8"?>
<!DOCTYPE svg PUBLIC "-//W3C//DTD SVG 1.1//EN" "http://www.w3.org/Graphics/SVG/1.1/DTD/svg11.dtd">
<svg version="1.1" xmlns="http://www.w3.org/2000/svg" xmlns:xlink="http://www.w3.org/1999/xlink" x="0" y="0" width="255.23" height="19.843" viewBox="0, 0, 255.23, 19.843">
  <g id="レイヤー_7" transform="translate(-357.745, -41.042)">
    <g id="レイヤー_4">
      <path d="M537.885,53.142 L541.228,53.142 C541.228,53.142 541.238,54.1 541.238,54.542 C541.238,55.335 539.627,56.066 537.666,56.066 C535.417,56.066 533.167,54.493 533.167,50.978 C533.167,49.367 533.646,48.037 534.589,47.133 C535.395,46.359 536.481,45.934 537.646,45.934 C539.917,45.934 541.13,47.395 541.507,48.763 L541.538,48.875 L544.559,47.7 L544.529,47.603 C544.24,46.672 543.591,45.355 542.284,44.304 C541.044,43.307 539.485,42.801 537.651,42.801 C535.586,42.801 533.663,43.58 532.236,44.994 C531.502,45.721 530.929,46.587 530.531,47.57 C530.111,48.609 529.897,49.756 529.897,50.978 C529.897,53.384 530.676,55.449 532.148,56.95 C533.529,58.357 535.416,59.133 537.462,59.133 C540.154,59.133 541.509,58.579 542.543,58.177 C543.16,57.937 543.832,57.704 544.381,57.677 L544.403,57.677 L544.403,50.213 L537.885,50.213 z M565.448,43.023 L565.448,54.219 L559.56,43.025 L555.485,43.023 L555.485,43.025 L555.485,58.906 L555.485,58.91 L558.661,58.91 L558.661,47.72 L564.4,58.909 L568.625,58.91 L568.625,58.909 L568.625,43.028 L568.625,43.023 z M523.294,43.023 L523.294,54.219 L517.406,43.025 L513.331,43.023 L513.331,43.025 L513.331,58.906 L513.331,58.91 L516.507,58.91 L516.507,47.72 L522.246,58.909 L526.471,58.91 L526.471,58.909 L526.471,43.028 L526.471,43.023 z M595.324,55.733 L589.919,55.733 L589.919,52.489 L595.001,52.489 L595.001,49.439 L589.919,49.439 L589.919,46.199 L595.324,46.199 L597.007,43.022 L586.743,43.022 L586.743,43.023 L586.743,58.91 L597.007,58.91 z M581.457,55.733 L576.053,55.733 L576.053,52.489 L581.134,52.489 L581.134,49.439 L576.053,49.439 L576.053,46.199 L581.457,46.199 L583.141,43.022 L572.876,43.022 L572.876,43.023 L572.876,58.91 L583.141,58.91 z M507.516,55.733 L502.111,55.733 L502.111,52.489 L507.193,52.489 L507.193,49.439 L502.111,49.439 L502.111,46.199 L507.516,46.199 L509.199,43.022 L498.935,43.022 L498.935,43.023 L498.935,58.91 L509.199,58.91 z M612.875,48.005 C612.875,45.253 610.644,43.022 607.893,43.022 C607.881,43.022 600.65,43.023 600.65,43.023 L600.66,58.911 L603.788,58.911 L603.788,45.803 L607.499,45.803 C608.715,45.803 609.701,46.789 609.701,48.005 C609.701,49.222 608.715,50.208 607.499,50.208 L604.963,50.208 L609.57,58.911 L612.975,58.911 L609.614,52.685 L609.613,52.682 C611.517,51.982 612.875,50.152 612.875,48.005 M551.591,58.908 L548.414,58.908 L548.414,43.027 L551.591,43.027 z M551.591,43.027" fill="#524E4D"/>
      <path d="M494.061,58.916 L490.87,58.916 L490.87,43.023 L494.061,43.023 z" fill="#EA0000"/>
      <path d="M478.078,43.024 L471.95,58.917 L475.301,58.917 L479.812,46.803 L484.324,58.917 L487.674,58.917 L481.547,43.024 z" fill="#EA0000"/>
      <path d="M404.82,43.024 L398.692,58.917 L402.043,58.917 L406.554,46.803 L411.065,58.917 L414.416,58.917 L408.289,43.024 z" fill="#EA0000"/>
      <path d="M449.186,52.835 C449.165,54.572 447.746,55.974 445.997,55.974 C444.247,55.974 442.828,54.731 442.807,52.993 L442.807,43.024 L439.615,43.024 L439.615,52.835 L439.616,52.993 C439.637,56.485 442.485,59.15 445.997,59.15 C449.508,59.15 452.356,56.485 452.377,52.993 L452.379,52.993 L452.379,43.024 L449.188,43.024 z" fill="#EA0000"/>
      <path d="M469.415,48.007 C469.415,45.255 467.174,43.023 464.409,43.023 C464.398,43.023 457.133,43.024 457.133,43.024 L457.144,58.917 L460.286,58.917 L460.286,45.804 L464.014,45.804 C465.236,45.804 466.227,46.791 466.227,48.007 C466.227,49.224 465.236,50.211 464.014,50.211 L461.466,50.211 L466.094,58.917 L469.516,58.917 L466.139,52.689 L466.138,52.686 C468.05,51.985 469.415,50.155 469.415,48.007" fill="#EA0000"/>
      <path d="M430.935,43.024 L426.255,49.408 L421.575,43.024 L417.64,43.024 L417.64,58.917 L420.831,58.917 L420.831,47.361 L426.255,54.581 L431.679,47.361 L431.679,58.917 L434.87,58.917 L434.87,43.024 z" fill="#EA0000"/>
      <path d="M391.73,50.502 C391.561,50.502 387.361,50.502 387.268,50.502 C386.394,50.502 385.685,49.753 385.685,48.881 C385.685,48.008 386.364,47.266 387.24,47.261 L387.24,47.261 L395.15,47.261 L396.839,44.083 L387.248,44.083 C384.604,44.083 382.461,46.217 382.461,48.85 C382.461,51.482 384.604,53.552 387.247,53.553 C387.247,53.553 391.665,53.553 391.703,53.553 C392.577,53.553 393.279,54.301 393.279,55.173 C393.279,56.047 392.568,56.789 391.692,56.794 L391.722,56.794 L383.756,56.794 L382.067,59.972 L391.715,59.972 C394.358,59.971 396.501,57.837 396.501,55.205 C396.501,52.578 394.366,50.502 391.73,50.502" fill="#EA0000"/>
      <path d="M371.833,52.674 L364.265,60.286 C360.461,58.898 357.745,55.248 357.745,50.964 C357.745,45.484 362.187,41.042 367.666,41.042 C368.151,41.042 368.628,41.079 369.095,41.146 L362.259,48.021 C360.943,49.345 360.942,51.5 362.259,52.824 C362.899,53.467 363.749,53.821 364.654,53.821 C365.559,53.821 366.41,53.467 367.049,52.824 L369.523,50.336 C369.832,50.026 370.242,49.855 370.678,49.855 C371.114,49.855 371.524,50.026 371.833,50.336 C372.474,50.981 372.474,52.029 371.833,52.674" fill="#EA0000"/>
      <path d="M371.068,41.641 L363.499,49.254 C362.858,49.898 362.858,50.947 363.499,51.592 C363.808,51.902 364.218,52.073 364.654,52.073 C365.09,52.073 365.501,51.902 365.809,51.592 L368.283,49.104 C368.922,48.461 369.773,48.106 370.678,48.106 C371.583,48.106 372.433,48.461 373.073,49.104 C374.39,50.428 374.39,52.583 373.073,53.907 L366.238,60.781 C366.705,60.849 367.181,60.885 367.666,60.885 C373.145,60.885 377.587,56.443 377.587,50.964 C377.587,46.68 374.872,43.03 371.068,41.641" fill="#EA0000"/>
    </g>
  </g>
</svg>
