<svg xmlns="http://www.w3.org/2000/svg" viewBox="0 0 1407.89 229.14"><defs><style>.cls-1{fill:#ffffff;}</style></defs><g id="レイヤー_2" data-name="レイヤー 2"><g id="レイヤー_1-2" data-name="レイヤー 1"><path class="cls-1" d="M1407.89,33V196.27h-32.65V33Zm-163.51,0-62.69,163.29H1216l46.15-124.46,46.15,124.46h34.29L1279.86,33ZM494.9,33,432.21,196.27h34.28L512.64,71.81l46.15,124.46h34.29L530.38,33Zm453.89,100.8A32.63,32.63,0,0,1,916.16,166c-17.89,0-32.41-12.78-32.63-30.62V33H850.88V135.41c.21,35.87,29.35,63.26,65.27,63.26s65.06-27.39,65.28-63.26h0V33H948.81Zm207-49.6A51.21,51.21,0,0,0,1104.54,33H1030.1l.11,163.29h32.15V61.55h38.13a22.64,22.64,0,1,1,0,45.27h-26.07l47.35,89.45h35l-34.54-64v0A51.23,51.23,0,0,0,1155.75,84.18ZM762.08,33,714.2,98.57,666.31,33H626.06V196.27h32.65V77.54l55.49,74.18,55.49-74.18V196.27h32.65V33H762.08ZM361,98.92H315.33c-8.94,0-16.19-7.69-16.19-16.65s6.94-16.6,15.9-16.64H396L413.25,33H315.12a49,49,0,0,0-49,49c0,27,21.92,48.31,49,48.32h45.59c8.94,0,16.12,7.69,16.12,16.65a16.63,16.63,0,0,1-16.24,16.65H279.4l-17.28,32.65h98.71a49,49,0,0,0,49-49C409.79,120.25,388,98.92,361,98.92ZM162.69,134.33l-87.4,87.9a114.58,114.58,0,0,1,55.78-221L52.13,80.59a39.44,39.44,0,0,0,0,55.47,39,39,0,0,0,55.32,0L136,107.33a18.76,18.76,0,0,1,26.68,0A19.19,19.19,0,0,1,162.69,134.33ZM153.86,6.92,66.45,94.82a19.19,19.19,0,0,0,0,27,18.78,18.78,0,0,0,26.68,0l28.56-28.73a39,39,0,0,1,55.32,0,39.44,39.44,0,0,1,0,55.47L98.08,227.94a114.58,114.58,0,0,0,55.78-221Z"/></g></g></svg>